<svg width="32" height="32" viewBox="0 0 32 32" fill="none" xmlns="http://www.w3.org/2000/svg">
<g clip-path="url(#clip0_9_543)">
<path d="M16 8C16.7072 8 17.3855 7.71905 17.8856 7.21895C18.3857 6.71885 18.6667 6.04058 18.6667 5.33333C18.6667 4.82667 18.5333 4.36 18.28 3.96L16 0L13.72 3.96C13.4667 4.36 13.3333 4.82667 13.3333 5.33333C13.3333 6.8 14.5333 8 16 8ZM24 12H17.3333V9.33333H14.6667V12H8C5.78667 12 4 13.7867 4 16V28C4 28.7333 4.6 29.3333 5.33333 29.3333H26.6667C27.4 29.3333 28 28.7333 28 28V16C28 13.7867 26.2133 12 24 12ZM25.3333 26.6667H6.66667V22.6667C7.86667 22.6667 9.01333 22.1733 9.86667 21.3333L11.3333 19.8933L12.7467 21.3333C14.4933 23.0667 17.5333 23.0533 19.2667 21.3333L20.7067 19.8933L22.1333 21.3333C22.9867 22.1733 24.1333 22.6667 25.3333 22.6667V26.6667ZM25.3333 20.6667C24.6667 20.6667 24 20.4 23.5333 19.9067L20.6667 17.0667L17.84 19.9067C16.8533 20.8933 15.1333 20.8933 14.1467 19.9067L11.3333 17.0667L8.45333 19.9067C8 20.3867 7.33333 20.6667 6.66667 20.6667V16C6.66667 15.2667 7.26667 14.6667 8 14.6667H24C24.7333 14.6667 25.3333 15.2667 25.3333 16V20.6667Z" fill="white"/>
</g>
<defs>
<clipPath id="clip0_9_543">
<rect width="32" height="32" fill="white"/>
</clipPath>
</defs>
</svg>
