<svg width="28" height="30" viewBox="0 0 28 30" fill="none" xmlns="http://www.w3.org/2000/svg">
<path d="M14.1568 8.4377C14.8932 8.4377 15.4902 7.84075 15.4902 7.10437C15.4902 6.36799 14.8932 5.77104 14.1568 5.77104C13.4204 5.77104 12.8235 6.36799 12.8235 7.10437C12.8235 7.84075 13.4204 8.4377 14.1568 8.4377Z" fill="#F1F5F9"/>
<path d="M6.15674 21.771H22.1567V24.4377H6.15674V21.771ZM11.4901 14.8777L15.2127 18.603L20.4554 13.3564L22.1567 15.1044V9.77103H16.8234L18.5701 11.471L15.2114 14.8297L11.4901 11.1044L6.15674 16.4377L8.04207 18.323L11.4901 14.8777Z" fill="#F1F5F9"/>
<path d="M23.4902 3.10437H19.0928C18.9619 2.90723 18.8194 2.71801 18.6662 2.5377L18.6528 2.5217C17.6732 1.3807 16.2949 0.656748 14.7995 0.497702C14.3749 0.416853 13.9388 0.416853 13.5142 0.497702C12.0187 0.656748 10.6405 1.3807 9.66082 2.5217L9.64749 2.5377C9.49425 2.71757 9.35178 2.90635 9.22082 3.10304V3.10437H4.82349C3.76295 3.10543 2.74615 3.5272 1.99623 4.27711C1.24631 5.02703 0.824545 6.04383 0.823486 7.10437V25.771C0.824545 26.8316 1.24631 27.8484 1.99623 28.5983C2.74615 29.3482 3.76295 29.77 4.82349 29.771H23.4902C24.5507 29.77 25.5675 29.3482 26.3174 28.5983C27.0673 27.8484 27.4891 26.8316 27.4902 25.771V7.10437C27.4891 6.04383 27.0673 5.02703 26.3174 4.27711C25.5675 3.5272 24.5507 3.10543 23.4902 3.10437ZM24.8235 25.771C24.8235 26.1247 24.683 26.4638 24.433 26.7138C24.1829 26.9639 23.8438 27.1044 23.4902 27.1044H4.82349C4.46997 27.104 4.13104 26.9634 3.88107 26.7135C3.6311 26.4635 3.49051 26.1245 3.49015 25.771V7.10437C3.49051 6.75086 3.6311 6.41192 3.88107 6.16195C4.13104 5.91198 4.46997 5.77139 4.82349 5.77104H10.8902C11.0432 5.01751 11.452 4.34005 12.0473 3.85345C12.6427 3.36685 13.3879 3.10103 14.1568 3.10103C14.9257 3.10103 15.671 3.36685 16.2663 3.85345C16.8617 4.34005 17.2705 5.01751 17.4235 5.77104H23.4902C23.8437 5.77139 24.1826 5.91198 24.4326 6.16195C24.6825 6.41192 24.8231 6.75086 24.8235 7.10437V25.771Z" fill="#F1F5F9"/>
</svg>
