<svg width="32" height="28" viewBox="0 0 32 28" fill="none" xmlns="http://www.w3.org/2000/svg">
<path d="M20.9561 1.294C20.9947 1.16846 21.0082 1.03654 20.9958 0.905778C20.9834 0.775016 20.9454 0.647972 20.884 0.531898C20.8225 0.415825 20.7388 0.312996 20.6375 0.229283C20.5363 0.14557 20.4196 0.0826115 20.2941 0.0440029C20.1685 0.00539426 20.0366 -0.00810859 19.9059 0.00426519C19.7751 0.016639 19.648 0.0546471 19.532 0.11612C19.4159 0.177592 19.3131 0.261325 19.2294 0.362537C19.1456 0.463749 19.0827 0.580459 19.0441 0.706003L11.0441 26.706C10.9661 26.9596 10.992 27.2337 11.1162 27.4681C11.2403 27.7025 11.4525 27.878 11.7061 27.956C11.9596 28.034 12.2338 28.008 12.4682 27.8839C12.7026 27.7597 12.8781 27.5476 12.9561 27.294L20.9561 1.294ZM9.70808 6.292C9.8012 6.38489 9.87509 6.49524 9.9255 6.61674C9.97592 6.73823 10.0019 6.86847 10.0019 7C10.0019 7.13154 9.97592 7.26178 9.9255 7.38327C9.87509 7.50476 9.8012 7.61511 9.70808 7.708L3.41408 14L9.70808 20.292C9.89585 20.4798 10.0013 20.7345 10.0013 21C10.0013 21.2656 9.89585 21.5202 9.70808 21.708C9.5203 21.8958 9.26563 22.0013 9.00008 22.0013C8.73453 22.0013 8.47985 21.8958 8.29208 21.708L1.29208 14.708C1.19895 14.6151 1.12507 14.5048 1.07465 14.3833C1.02424 14.2618 0.998291 14.1315 0.998291 14C0.998291 13.8685 1.02424 13.7382 1.07465 13.6167C1.12507 13.4952 1.19895 13.3849 1.29208 13.292L8.29208 6.292C8.38497 6.19888 8.49532 6.12499 8.61681 6.07458C8.7383 6.02416 8.86854 5.99822 9.00008 5.99822C9.13161 5.99822 9.26186 6.02416 9.38335 6.07458C9.50484 6.12499 9.61519 6.19888 9.70808 6.292ZM22.2921 6.292C22.199 6.38489 22.1251 6.49524 22.0747 6.61674C22.0242 6.73823 21.9983 6.86847 21.9983 7C21.9983 7.13154 22.0242 7.26178 22.0747 7.38327C22.1251 7.50476 22.199 7.61511 22.2921 7.708L28.5861 14L22.2921 20.292C22.1991 20.385 22.1253 20.4954 22.075 20.6168C22.0247 20.7383 21.9988 20.8685 21.9988 21C21.9988 21.1315 22.0247 21.2617 22.075 21.3832C22.1253 21.5047 22.1991 21.615 22.2921 21.708C22.3851 21.801 22.4954 21.8747 22.6169 21.9251C22.7384 21.9754 22.8686 22.0013 23.0001 22.0013C23.1316 22.0013 23.2618 21.9754 23.3832 21.9251C23.5047 21.8747 23.6151 21.801 23.7081 21.708L30.7081 14.708C30.8012 14.6151 30.8751 14.5048 30.9255 14.3833C30.9759 14.2618 31.0019 14.1315 31.0019 14C31.0019 13.8685 30.9759 13.7382 30.9255 13.6167C30.8751 13.4952 30.8012 13.3849 30.7081 13.292L23.7081 6.292C23.6152 6.19888 23.5048 6.12499 23.3833 6.07458C23.2619 6.02416 23.1316 5.99822 23.0001 5.99822C22.8685 5.99822 22.7383 6.02416 22.6168 6.07458C22.4953 6.12499 22.385 6.19888 22.2921 6.292Z" fill="white"/>
</svg>
