<svg width="100%" height="100%" viewBox="0 0 438 100" fill="none" xmlns="http://www.w3.org/2000/svg">
<path d="M174.188 91.348C176.516 89.524 178.424 87.952 179.912 86.632C181.4 85.312 182.648 83.956 183.656 82.564C184.664 81.148 185.168 79.804 185.168 78.532C185.168 77.764 184.988 77.164 184.628 76.732C184.292 76.3 183.788 76.084 183.116 76.084C182.42 76.084 181.88 76.384 181.496 76.984C181.112 77.56 180.932 78.412 180.956 79.54H174.116C174.188 77.404 174.656 75.64 175.52 74.248C176.384 72.832 177.512 71.8 178.904 71.152C180.296 70.48 181.844 70.144 183.548 70.144C186.5 70.144 188.696 70.876 190.136 72.34C191.576 73.804 192.296 75.7 192.296 78.028C192.296 80.524 191.456 82.864 189.776 85.048C188.12 87.232 186.044 89.188 183.548 90.916H192.548V96.64H174.188V91.348ZM194.9 83.464C194.9 79.336 195.74 76.084 197.42 73.708C199.1 71.332 201.74 70.144 205.34 70.144C208.94 70.144 211.58 71.332 213.26 73.708C214.964 76.084 215.816 79.336 215.816 83.464C215.816 87.64 214.976 90.916 213.296 93.292C211.616 95.668 208.964 96.856 205.34 96.856C201.716 96.856 199.064 95.668 197.384 93.292C195.728 90.916 194.9 87.64 194.9 83.464ZM208.832 83.464C208.832 81.304 208.604 79.66 208.148 78.532C207.692 77.38 206.756 76.804 205.34 76.804C203.924 76.804 202.988 77.38 202.532 78.532C202.076 79.66 201.848 81.304 201.848 83.464C201.848 85.672 202.064 87.352 202.496 88.504C202.952 89.632 203.9 90.196 205.34 90.196C206.78 90.196 207.716 89.632 208.148 88.504C208.604 87.352 208.832 85.672 208.832 83.464ZM218.344 91.348C220.672 89.524 222.58 87.952 224.068 86.632C225.556 85.312 226.804 83.956 227.812 82.564C228.82 81.148 229.324 79.804 229.324 78.532C229.324 77.764 229.144 77.164 228.784 76.732C228.448 76.3 227.944 76.084 227.272 76.084C226.576 76.084 226.036 76.384 225.652 76.984C225.268 77.56 225.088 78.412 225.112 79.54H218.272C218.344 77.404 218.812 75.64 219.676 74.248C220.54 72.832 221.668 71.8 223.06 71.152C224.452 70.48 226 70.144 227.704 70.144C230.656 70.144 232.852 70.876 234.292 72.34C235.732 73.804 236.452 75.7 236.452 78.028C236.452 80.524 235.612 82.864 233.932 85.048C232.276 87.232 230.2 89.188 227.704 90.916H236.704V96.64H218.344V91.348ZM239.38 78.532C239.476 75.82 240.316 73.744 241.9 72.304C243.484 70.84 245.692 70.108 248.524 70.108C250.372 70.108 251.944 70.432 253.24 71.08C254.56 71.704 255.556 72.568 256.228 73.672C256.9 74.752 257.236 75.976 257.236 77.344C257.236 78.976 256.84 80.284 256.048 81.268C255.256 82.228 254.356 82.876 253.348 83.212V83.356C256.252 84.436 257.704 86.5 257.704 89.548C257.704 91.06 257.356 92.392 256.66 93.544C255.964 94.696 254.956 95.596 253.636 96.244C252.316 96.892 250.744 97.216 248.92 97.216C245.92 97.216 243.544 96.496 241.792 95.056C240.064 93.592 239.164 91.36 239.092 88.36H245.968C245.92 89.32 246.124 90.064 246.58 90.592C247.036 91.12 247.72 91.384 248.632 91.384C249.328 91.384 249.868 91.168 250.252 90.736C250.66 90.304 250.864 89.728 250.864 89.008C250.864 88.096 250.564 87.424 249.964 86.992C249.388 86.56 248.44 86.344 247.12 86.344H245.86V80.62H247.084C247.996 80.644 248.764 80.5 249.388 80.188C250.036 79.852 250.36 79.192 250.36 78.208C250.36 77.464 250.18 76.912 249.82 76.552C249.46 76.168 248.968 75.976 248.344 75.976C247.648 75.976 247.132 76.228 246.796 76.732C246.484 77.212 246.304 77.812 246.256 78.532H239.38Z" fill="url(#paint0_angular_336_8)"/>
<path d="M5.73394 32.744C7.33394 32.712 8.46994 32.424 9.14194 31.88C9.84594 31.336 10.1979 30.52 10.1979 29.432C10.1979 28.664 10.0379 27.128 9.71794 24.824C9.55794 23.832 9.41394 22.808 9.28594 21.752C9.15794 20.664 9.09394 19.704 9.09394 18.872C9.09394 15.928 9.98994 13.64 11.7819 12.008C13.6059 10.376 16.0539 9.56 19.1259 9.56H22.6779V17.192H20.9499C19.9259 17.192 19.1899 17.416 18.7419 17.864C18.2939 18.312 18.0699 18.984 18.0699 19.88C18.0699 20.488 18.1979 21.912 18.4539 24.152C18.7419 27.032 18.8859 28.904 18.8859 29.768C18.8859 31.592 18.4539 33.096 17.5899 34.28C16.7579 35.464 15.4779 36.216 13.7499 36.536V36.632C15.4779 36.952 16.7579 37.704 17.5899 38.888C18.4539 40.072 18.8859 41.576 18.8859 43.4C18.8859 44.264 18.7419 46.136 18.4539 49.016C18.1979 51.256 18.0699 52.696 18.0699 53.336C18.0699 54.2 18.2939 54.856 18.7419 55.304C19.1899 55.752 19.9259 55.976 20.9499 55.976H22.6779V63.608H19.1259C16.0539 63.608 13.6059 62.792 11.7819 61.16C9.98994 59.528 9.09394 57.24 9.09394 54.296C9.09394 53.464 9.15794 52.52 9.28594 51.464C9.41394 50.376 9.55794 49.336 9.71794 48.344C10.0379 46.04 10.1979 44.52 10.1979 43.784C10.1979 41.608 8.70994 40.472 5.73394 40.376V32.744ZM61.3269 19.16L49.6629 53H37.6149L25.9029 19.16H35.9829L43.6629 43.592L51.2949 19.16H61.3269ZM103.762 19.16V53H94.3543V34.328L87.9703 53H80.0983L73.6663 34.184V53H64.2583V19.16H75.6343L84.1303 41.144L92.4343 19.16H103.762ZM130.718 35.624C132.702 36.072 134.27 37.064 135.422 38.6C136.606 40.104 137.198 41.832 137.198 43.784C137.198 46.664 136.206 48.92 134.222 50.552C132.238 52.184 129.454 53 125.87 53H109.118V19.16H125.342C128.798 19.16 131.502 19.928 133.454 21.464C135.438 23 136.43 25.16 136.43 27.944C136.43 29.928 135.902 31.592 134.846 32.936C133.822 34.248 132.446 35.144 130.718 35.624ZM118.526 32.6H123.278C125.646 32.6 126.83 31.624 126.83 29.672C126.83 27.656 125.646 26.648 123.278 26.648H118.526V32.6ZM123.998 45.416C126.366 45.416 127.55 44.424 127.55 42.44C127.55 41.416 127.23 40.632 126.59 40.088C125.982 39.544 125.102 39.272 123.95 39.272H118.526V45.416H123.998ZM154.713 19.16C158.265 19.16 161.369 19.88 164.025 21.32C166.713 22.728 168.777 24.712 170.217 27.272C171.657 29.832 172.377 32.76 172.377 36.056C172.377 39.32 171.641 42.232 170.169 44.792C168.729 47.352 166.665 49.368 163.977 50.84C161.321 52.28 158.233 53 154.713 53H141.321V19.16H154.713ZM153.993 44.696C156.745 44.696 158.905 43.944 160.473 42.44C162.041 40.936 162.825 38.808 162.825 36.056C162.825 33.272 162.041 31.128 160.473 29.624C158.905 28.088 156.745 27.32 153.993 27.32H150.729V44.696H153.993ZM186.026 26.696V32.216H196.826V39.368H186.026V45.464H198.266V53H176.618V19.16H198.266V26.696H186.026ZM235.843 19.16L224.179 53H212.131L200.419 19.16H210.499L218.179 43.592L225.811 19.16H235.843ZM248.182 26.696V32.216H258.982V39.368H248.182V45.464H260.422V53H238.774V19.16H260.422V26.696H248.182ZM274.479 45.8H284.991V53H265.071V19.16H274.479V45.8ZM304.873 53.336C301.705 53.336 298.793 52.6 296.137 51.128C293.481 49.624 291.369 47.56 289.801 44.936C288.265 42.28 287.497 39.288 287.497 35.96C287.497 32.632 288.265 29.656 289.801 27.032C291.369 24.376 293.481 22.312 296.137 20.84C298.793 19.368 301.705 18.632 304.873 18.632C308.073 18.632 310.985 19.368 313.609 20.84C316.265 22.312 318.361 24.376 319.897 27.032C321.433 29.656 322.201 32.632 322.201 35.96C322.201 39.288 321.433 42.28 319.897 44.936C318.361 47.56 316.265 49.624 313.609 51.128C310.953 52.6 308.041 53.336 304.873 53.336ZM304.873 44.6C307.273 44.6 309.161 43.816 310.537 42.248C311.945 40.68 312.649 38.584 312.649 35.96C312.649 33.272 311.945 31.16 310.537 29.624C309.161 28.056 307.273 27.272 304.873 27.272C302.441 27.272 300.537 28.056 299.161 29.624C297.785 31.16 297.097 33.272 297.097 35.96C297.097 38.616 297.785 40.728 299.161 42.296C300.537 43.832 302.441 44.6 304.873 44.6ZM353.166 30.44C353.166 32.488 352.686 34.36 351.726 36.056C350.798 37.72 349.374 39.064 347.454 40.088C345.566 41.08 343.246 41.576 340.494 41.576H335.838V53H326.43V19.16H340.494C343.214 19.16 345.518 19.64 347.406 20.6C349.326 21.56 350.766 22.888 351.726 24.584C352.686 26.28 353.166 28.232 353.166 30.44ZM339.582 34.088C342.238 34.088 343.566 32.872 343.566 30.44C343.566 27.976 342.238 26.744 339.582 26.744H335.838V34.088H339.582ZM366.354 26.696V32.216H377.154V39.368H366.354V45.464H378.594V53H356.946V19.16H378.594V26.696H366.354ZM400.379 53L393.659 40.52H392.651V53H383.243V19.16H398.075C400.795 19.16 403.099 19.64 404.987 20.6C406.875 21.528 408.299 22.824 409.259 24.488C410.219 26.12 410.699 27.96 410.699 30.008C410.699 32.312 410.059 34.344 408.779 36.104C407.531 37.832 405.691 39.064 403.259 39.8L410.891 53H400.379ZM392.651 34.088H397.307C398.587 34.088 399.547 33.784 400.187 33.176C400.827 32.568 401.147 31.688 401.147 30.536C401.147 29.448 400.811 28.6 400.139 27.992C399.499 27.352 398.555 27.032 397.307 27.032H392.651V34.088ZM432.257 40.376C429.281 40.472 427.793 41.608 427.793 43.784C427.793 44.52 427.953 46.04 428.273 48.344C428.433 49.336 428.577 50.376 428.705 51.464C428.833 52.52 428.897 53.464 428.897 54.296C428.897 57.24 427.985 59.528 426.161 61.16C424.369 62.792 421.937 63.608 418.865 63.608H415.313V55.976H417.041C418.065 55.976 418.801 55.752 419.249 55.304C419.697 54.856 419.921 54.2 419.921 53.336C419.921 52.696 419.793 51.256 419.537 49.016C419.249 46.136 419.105 44.264 419.105 43.4C419.105 41.576 419.521 40.072 420.353 38.888C421.217 37.704 422.513 36.952 424.241 36.632V36.536C422.513 36.216 421.217 35.464 420.353 34.28C419.521 33.096 419.105 31.592 419.105 29.768C419.105 28.904 419.249 27.032 419.537 24.152C419.793 21.912 419.921 20.488 419.921 19.88C419.921 18.984 419.697 18.312 419.249 17.864C418.801 17.416 418.065 17.192 417.041 17.192H415.313V9.56H418.865C421.937 9.56 424.369 10.376 426.161 12.008C427.985 13.64 428.897 15.928 428.897 18.872C428.897 19.704 428.833 20.664 428.705 21.752C428.577 22.808 428.433 23.832 428.273 24.824C427.953 27.128 427.793 28.664 427.793 29.432C427.793 30.52 428.129 31.336 428.801 31.88C429.505 32.424 430.657 32.712 432.257 32.744V40.376Z" fill="url(#paint1_angular_336_8)"/>
<defs>
<radialGradient id="paint0_angular_336_8" cx="0" cy="0" r="1" gradientUnits="userSpaceOnUse" gradientTransform="translate(206.16 78.5) rotate(59.153) scale(25.0425 151.646)">
<stop offset="0.745538" stop-color="#00AFEF"/>
<stop offset="0.996466" stop-color="#C100CC"/>
</radialGradient>
<radialGradient id="paint1_angular_336_8" cx="0" cy="0" r="1" gradientUnits="userSpaceOnUse" gradientTransform="translate(157.868 23.7133) rotate(21.2014) scale(65.57 304.12)">
<stop offset="0.745538" stop-color="#00AFEF"/>
<stop offset="0.996466" stop-color="#C100CC"/>
</radialGradient>
</defs>
</svg>
