<svg width="578" height="128" viewBox="0 0 578 128" fill="none" xmlns="http://www.w3.org/2000/svg">
<path d="M247.188 122.348C249.516 120.524 251.424 118.952 252.912 117.632C254.4 116.312 255.648 114.956 256.656 113.564C257.664 112.148 258.168 110.804 258.168 109.532C258.168 108.764 257.988 108.164 257.628 107.732C257.292 107.3 256.788 107.084 256.116 107.084C255.42 107.084 254.88 107.384 254.496 107.984C254.112 108.56 253.932 109.412 253.956 110.54H247.116C247.188 108.404 247.656 106.64 248.52 105.248C249.384 103.832 250.512 102.8 251.904 102.152C253.296 101.48 254.844 101.144 256.548 101.144C259.5 101.144 261.696 101.876 263.136 103.34C264.576 104.804 265.296 106.7 265.296 109.028C265.296 111.524 264.456 113.864 262.776 116.048C261.12 118.232 259.044 120.188 256.548 121.916H265.548V127.64H247.188V122.348ZM267.9 114.464C267.9 110.336 268.74 107.084 270.42 104.708C272.1 102.332 274.74 101.144 278.34 101.144C281.94 101.144 284.58 102.332 286.26 104.708C287.964 107.084 288.816 110.336 288.816 114.464C288.816 118.64 287.976 121.916 286.296 124.292C284.616 126.668 281.964 127.856 278.34 127.856C274.716 127.856 272.064 126.668 270.384 124.292C268.728 121.916 267.9 118.64 267.9 114.464ZM281.832 114.464C281.832 112.304 281.604 110.66 281.148 109.532C280.692 108.38 279.756 107.804 278.34 107.804C276.924 107.804 275.988 108.38 275.532 109.532C275.076 110.66 274.848 112.304 274.848 114.464C274.848 116.672 275.064 118.352 275.496 119.504C275.952 120.632 276.9 121.196 278.34 121.196C279.78 121.196 280.716 120.632 281.148 119.504C281.604 118.352 281.832 116.672 281.832 114.464ZM291.344 122.348C293.672 120.524 295.58 118.952 297.068 117.632C298.556 116.312 299.804 114.956 300.812 113.564C301.82 112.148 302.324 110.804 302.324 109.532C302.324 108.764 302.144 108.164 301.784 107.732C301.448 107.3 300.944 107.084 300.272 107.084C299.576 107.084 299.036 107.384 298.652 107.984C298.268 108.56 298.088 109.412 298.112 110.54H291.272C291.344 108.404 291.812 106.64 292.676 105.248C293.54 103.832 294.668 102.8 296.06 102.152C297.452 101.48 299 101.144 300.704 101.144C303.656 101.144 305.852 101.876 307.292 103.34C308.732 104.804 309.452 106.7 309.452 109.028C309.452 111.524 308.612 113.864 306.932 116.048C305.276 118.232 303.2 120.188 300.704 121.916H309.704V127.64H291.344V122.348ZM311.84 122.348C314.168 120.524 316.076 118.952 317.564 117.632C319.052 116.312 320.3 114.956 321.308 113.564C322.316 112.148 322.82 110.804 322.82 109.532C322.82 108.764 322.64 108.164 322.28 107.732C321.944 107.3 321.44 107.084 320.768 107.084C320.072 107.084 319.532 107.384 319.148 107.984C318.764 108.56 318.584 109.412 318.608 110.54H311.768C311.84 108.404 312.308 106.64 313.172 105.248C314.036 103.832 315.164 102.8 316.556 102.152C317.948 101.48 319.496 101.144 321.2 101.144C324.152 101.144 326.348 101.876 327.788 103.34C329.228 104.804 329.948 106.7 329.948 109.028C329.948 111.524 329.108 113.864 327.428 116.048C325.772 118.232 323.696 120.188 321.2 121.916H330.2V127.64H311.84V122.348Z" fill="url(#paint0_angular_336_8)"/>
<path d="M75.7339 32.744C77.3339 32.712 78.4699 32.424 79.1419 31.88C79.8459 31.336 80.1979 30.52 80.1979 29.432C80.1979 28.664 80.0379 27.128 79.7179 24.824C79.5579 23.832 79.4139 22.808 79.2859 21.752C79.1579 20.664 79.0939 19.704 79.0939 18.872C79.0939 15.928 79.9899 13.64 81.7819 12.008C83.6059 10.376 86.0539 9.56 89.1259 9.56H92.6779V17.192H90.9499C89.9259 17.192 89.1899 17.416 88.7419 17.864C88.2939 18.312 88.0699 18.984 88.0699 19.88C88.0699 20.488 88.1979 21.912 88.4539 24.152C88.7419 27.032 88.8859 28.904 88.8859 29.768C88.8859 31.592 88.4539 33.096 87.5899 34.28C86.7579 35.464 85.4779 36.216 83.7499 36.536V36.632C85.4779 36.952 86.7579 37.704 87.5899 38.888C88.4539 40.072 88.8859 41.576 88.8859 43.4C88.8859 44.264 88.7419 46.136 88.4539 49.016C88.1979 51.256 88.0699 52.696 88.0699 53.336C88.0699 54.2 88.2939 54.856 88.7419 55.304C89.1899 55.752 89.9259 55.976 90.9499 55.976H92.6779V63.608H89.1259C86.0539 63.608 83.6059 62.792 81.7819 61.16C79.9899 59.528 79.0939 57.24 79.0939 54.296C79.0939 53.464 79.1579 52.52 79.2859 51.464C79.4139 50.376 79.5579 49.336 79.7179 48.344C80.0379 46.04 80.1979 44.52 80.1979 43.784C80.1979 41.608 78.7099 40.472 75.7339 40.376V32.744ZM131.327 19.16L119.663 53H107.615L95.9029 19.16H105.983L113.663 43.592L121.295 19.16H131.327ZM173.762 19.16V53H164.354V34.328L157.97 53H150.098L143.666 34.184V53H134.258V19.16H145.634L154.13 41.144L162.434 19.16H173.762ZM200.718 35.624C202.702 36.072 204.27 37.064 205.422 38.6C206.606 40.104 207.198 41.832 207.198 43.784C207.198 46.664 206.206 48.92 204.222 50.552C202.238 52.184 199.454 53 195.87 53H179.118V19.16H195.342C198.798 19.16 201.502 19.928 203.454 21.464C205.438 23 206.43 25.16 206.43 27.944C206.43 29.928 205.902 31.592 204.846 32.936C203.822 34.248 202.446 35.144 200.718 35.624ZM188.526 32.6H193.278C195.646 32.6 196.83 31.624 196.83 29.672C196.83 27.656 195.646 26.648 193.278 26.648H188.526V32.6ZM193.998 45.416C196.366 45.416 197.55 44.424 197.55 42.44C197.55 41.416 197.23 40.632 196.59 40.088C195.982 39.544 195.102 39.272 193.95 39.272H188.526V45.416H193.998ZM224.713 19.16C228.265 19.16 231.369 19.88 234.025 21.32C236.713 22.728 238.777 24.712 240.217 27.272C241.657 29.832 242.377 32.76 242.377 36.056C242.377 39.32 241.641 42.232 240.169 44.792C238.729 47.352 236.665 49.368 233.977 50.84C231.321 52.28 228.233 53 224.713 53H211.321V19.16H224.713ZM223.993 44.696C226.745 44.696 228.905 43.944 230.473 42.44C232.041 40.936 232.825 38.808 232.825 36.056C232.825 33.272 232.041 31.128 230.473 29.624C228.905 28.088 226.745 27.32 223.993 27.32H220.729V44.696H223.993ZM256.026 26.696V32.216H266.826V39.368H256.026V45.464H268.266V53H246.618V19.16H268.266V26.696H256.026ZM305.843 19.16L294.179 53H282.131L270.419 19.16H280.499L288.179 43.592L295.811 19.16H305.843ZM318.182 26.696V32.216H328.982V39.368H318.182V45.464H330.422V53H308.774V19.16H330.422V26.696H318.182ZM344.479 45.8H354.991V53H335.071V19.16H344.479V45.8ZM374.873 53.336C371.705 53.336 368.793 52.6 366.137 51.128C363.481 49.624 361.369 47.56 359.801 44.936C358.265 42.28 357.497 39.288 357.497 35.96C357.497 32.632 358.265 29.656 359.801 27.032C361.369 24.376 363.481 22.312 366.137 20.84C368.793 19.368 371.705 18.632 374.873 18.632C378.073 18.632 380.985 19.368 383.609 20.84C386.265 22.312 388.361 24.376 389.897 27.032C391.433 29.656 392.201 32.632 392.201 35.96C392.201 39.288 391.433 42.28 389.897 44.936C388.361 47.56 386.265 49.624 383.609 51.128C380.953 52.6 378.041 53.336 374.873 53.336ZM374.873 44.6C377.273 44.6 379.161 43.816 380.537 42.248C381.945 40.68 382.649 38.584 382.649 35.96C382.649 33.272 381.945 31.16 380.537 29.624C379.161 28.056 377.273 27.272 374.873 27.272C372.441 27.272 370.537 28.056 369.161 29.624C367.785 31.16 367.097 33.272 367.097 35.96C367.097 38.616 367.785 40.728 369.161 42.296C370.537 43.832 372.441 44.6 374.873 44.6ZM423.166 30.44C423.166 32.488 422.686 34.36 421.726 36.056C420.798 37.72 419.374 39.064 417.454 40.088C415.566 41.08 413.246 41.576 410.494 41.576H405.838V53H396.43V19.16H410.494C413.214 19.16 415.518 19.64 417.406 20.6C419.326 21.56 420.766 22.888 421.726 24.584C422.686 26.28 423.166 28.232 423.166 30.44ZM409.582 34.088C412.238 34.088 413.566 32.872 413.566 30.44C413.566 27.976 412.238 26.744 409.582 26.744H405.838V34.088H409.582ZM436.354 26.696V32.216H447.154V39.368H436.354V45.464H448.594V53H426.946V19.16H448.594V26.696H436.354ZM470.379 53L463.659 40.52H462.651V53H453.243V19.16H468.075C470.795 19.16 473.099 19.64 474.987 20.6C476.875 21.528 478.299 22.824 479.259 24.488C480.219 26.12 480.699 27.96 480.699 30.008C480.699 32.312 480.059 34.344 478.779 36.104C477.531 37.832 475.691 39.064 473.259 39.8L480.891 53H470.379ZM462.651 34.088H467.307C468.587 34.088 469.547 33.784 470.187 33.176C470.827 32.568 471.147 31.688 471.147 30.536C471.147 29.448 470.811 28.6 470.139 27.992C469.499 27.352 468.555 27.032 467.307 27.032H462.651V34.088ZM502.257 40.376C499.281 40.472 497.793 41.608 497.793 43.784C497.793 44.52 497.953 46.04 498.273 48.344C498.433 49.336 498.577 50.376 498.705 51.464C498.833 52.52 498.897 53.464 498.897 54.296C498.897 57.24 497.985 59.528 496.161 61.16C494.369 62.792 491.937 63.608 488.865 63.608H485.313V55.976H487.041C488.065 55.976 488.801 55.752 489.249 55.304C489.697 54.856 489.921 54.2 489.921 53.336C489.921 52.696 489.793 51.256 489.537 49.016C489.249 46.136 489.105 44.264 489.105 43.4C489.105 41.576 489.521 40.072 490.353 38.888C491.217 37.704 492.513 36.952 494.241 36.632V36.536C492.513 36.216 491.217 35.464 490.353 34.28C489.521 33.096 489.105 31.592 489.105 29.768C489.105 28.904 489.249 27.032 489.537 24.152C489.793 21.912 489.921 20.488 489.921 19.88C489.921 18.984 489.697 18.312 489.249 17.864C488.801 17.416 488.065 17.192 487.041 17.192H485.313V9.56H488.865C491.937 9.56 494.369 10.376 496.161 12.008C497.985 13.64 498.897 15.928 498.897 18.872C498.897 19.704 498.833 20.664 498.705 21.752C498.577 22.808 498.433 23.832 498.273 24.824C497.953 27.128 497.793 28.664 497.793 29.432C497.793 30.52 498.129 31.336 498.801 31.88C499.505 32.424 500.657 32.712 502.257 32.744V40.376Z" fill="url(#paint1_angular_336_8)"/>
<defs>
<radialGradient id="paint0_angular_336_8" cx="0" cy="0" r="1" gradientUnits="userSpaceOnUse" gradientTransform="translate(276.997 103.575) rotate(52.3796) scale(19.6634 130.782)">
<stop offset="0.745538" stop-color="#00AFEF"/>
<stop offset="0.996466" stop-color="#C100CC"/>
</radialGradient>
<radialGradient id="paint1_angular_336_8" cx="0" cy="0" r="1" gradientUnits="userSpaceOnUse" gradientTransform="translate(208.328 64) rotate(38.4263) scale(102.975 689.697)">
<stop offset="0.745538" stop-color="#00AFEF"/>
<stop offset="0.996466" stop-color="#C100CC"/>
</radialGradient>
</defs>
</svg>
