<svg width="33" height="33" viewBox="0 0 33 33" fill="none" xmlns="http://www.w3.org/2000/svg">
<path d="M22.6249 11.8051C23.4202 11.8051 24.0649 11.1604 24.0649 10.3651C24.0649 9.56982 23.4202 8.92511 22.6249 8.92511C21.8296 8.92511 21.1849 9.56982 21.1849 10.3651C21.1849 11.1604 21.8296 11.8051 22.6249 11.8051Z" fill="white"/>
<path d="M16.219 10.6091C15.0003 10.6091 13.8089 10.9705 12.7956 11.6476C11.7823 12.3247 10.9925 13.2871 10.5261 14.413C10.0597 15.539 9.93765 16.778 10.1754 17.9733C10.4132 19.1686 11 20.2666 11.8618 21.1283C12.7236 21.9901 13.8216 22.577 15.0169 22.8147C16.2122 23.0525 17.4511 22.9305 18.5771 22.4641C19.7031 21.9977 20.6654 21.2079 21.3425 20.1946C22.0196 19.1812 22.381 17.9899 22.381 16.7711C22.381 15.1369 21.7318 13.5695 20.5762 12.4139C19.4206 11.2583 17.8533 10.6091 16.219 10.6091ZM16.219 20.7711C15.4279 20.7711 14.6545 20.5365 13.9967 20.097C13.3389 19.6575 12.8262 19.0328 12.5235 18.3019C12.2207 17.571 12.1415 16.7667 12.2959 15.9908C12.4502 15.2148 12.8312 14.5021 13.3906 13.9427C13.95 13.3833 14.6627 13.0023 15.4386 12.848C16.2146 12.6936 17.0188 12.7729 17.7497 13.0756C18.4806 13.3784 19.1054 13.8911 19.5449 14.5489C19.9844 15.2066 20.219 15.98 20.219 16.7711C20.219 17.832 19.7976 18.8494 19.0474 19.5996C18.2973 20.3497 17.2799 20.7711 16.219 20.7711Z" fill="white"/>
<path d="M16.219 6.93312C19.423 6.93312 19.803 6.94512 21.068 7.00312C21.8288 7.01215 22.5825 7.15185 23.296 7.41612C23.8137 7.61581 24.2838 7.92166 24.6761 8.314C25.0684 8.70633 25.3743 9.17646 25.574 9.69412C25.8383 10.4076 25.978 11.1613 25.987 11.9221C26.045 13.1871 26.057 13.5671 26.057 16.7721C26.057 19.9771 26.045 20.3551 25.987 21.6201C25.978 22.381 25.8383 23.1346 25.574 23.8481C25.3743 24.3658 25.0684 24.8359 24.6761 25.2282C24.2838 25.6206 23.8137 25.9264 23.296 26.1261C22.5825 26.3904 21.8288 26.5301 21.068 26.5391C19.803 26.5971 19.423 26.6091 16.219 26.6091C13.015 26.6091 12.635 26.5971 11.37 26.5391C10.6092 26.5301 9.85552 26.3904 9.14199 26.1261C8.62433 25.9264 8.15421 25.6206 7.76187 25.2282C7.36954 24.8359 7.06369 24.3658 6.86399 23.8481C6.59973 23.1346 6.46003 22.381 6.45099 21.6201C6.39299 20.3551 6.38099 19.9751 6.38099 16.7711C6.38099 13.5671 6.39299 13.1871 6.45099 11.9221C6.46003 11.1613 6.59973 10.4076 6.86399 9.69412C7.06369 9.17646 7.36954 8.70633 7.76187 8.314C8.15421 7.92166 8.62433 7.61581 9.14199 7.41612C9.85552 7.15185 10.6092 7.01215 11.37 7.00312C12.635 6.94512 13.015 6.93312 16.219 6.93312ZM16.219 4.77112C12.96 4.77112 12.551 4.78512 11.271 4.84312C10.2758 4.86321 9.29115 5.05189 8.35899 5.40112C7.56172 5.70942 6.83765 6.1809 6.23321 6.78534C5.62877 7.38978 5.15729 8.11384 4.84899 8.91112C4.49965 9.84359 4.31098 10.8286 4.29099 11.8241C4.23299 13.1041 4.21899 13.5111 4.21899 16.7711C4.21899 20.0311 4.23299 20.4391 4.29099 21.7191C4.31109 22.7143 4.49976 23.699 4.84899 24.6311C5.15729 25.4284 5.62877 26.1525 6.23321 26.7569C6.83765 27.3613 7.56172 27.8328 8.35899 28.1411C9.29147 28.4905 10.2764 28.6791 11.272 28.6991C12.552 28.7571 12.96 28.7711 16.219 28.7711C19.478 28.7711 19.887 28.7571 21.167 28.6991C22.1626 28.6791 23.1475 28.4905 24.08 28.1411C24.8773 27.8328 25.6013 27.3613 26.2058 26.7569C26.8102 26.1525 27.2817 25.4284 27.59 24.6311C27.939 23.6986 28.1273 22.7136 28.147 21.7181C28.205 20.4381 28.219 20.0311 28.219 16.7711C28.219 13.5111 28.205 13.1031 28.147 11.8231C28.1269 10.8279 27.9382 9.84328 27.589 8.91112C27.2807 8.11384 26.8092 7.38978 26.2048 6.78534C25.6003 6.1809 24.8763 5.70942 24.079 5.40112C23.1465 5.05212 22.1615 4.86378 21.166 4.84412C19.886 4.78412 19.479 4.77112 16.219 4.77112Z" fill="white"/>
</svg>
