<svg width="33" height="33" viewBox="0 0 33 33" fill="none" xmlns="http://www.w3.org/2000/svg">
<path d="M26.6474 4.27112H5.66611C4.55674 4.27112 3.65674 5.17112 3.65674 6.28049V27.2617C3.65674 28.3711 4.55674 29.2711 5.66611 29.2711H26.6474C27.7567 29.2711 28.6567 28.3711 28.6567 27.2617V6.28049C28.6567 5.17112 27.7567 4.27112 26.6474 4.27112ZM26.6474 27.2711C12.6536 27.268 5.65674 27.2649 5.65674 27.2617C5.65986 13.268 5.66299 6.27112 5.66611 6.27112C19.6599 6.27424 26.6567 6.27737 26.6567 6.28049C26.6536 20.2742 26.6505 27.2711 26.6474 27.2711ZM7.36299 13.643H11.0724V25.5742H7.36299V13.643ZM9.21924 12.0117C10.4036 12.0117 11.3692 11.0492 11.3692 9.86174C11.3692 9.5794 11.3136 9.29982 11.2056 9.03897C11.0975 8.77812 10.9392 8.54111 10.7395 8.34146C10.5399 8.14182 10.3029 7.98345 10.042 7.8754C9.78116 7.76735 9.50158 7.71174 9.21924 7.71174C8.9369 7.71174 8.65732 7.76735 8.39647 7.8754C8.13562 7.98345 7.8986 8.14182 7.69896 8.34146C7.49931 8.54111 7.34095 8.77812 7.2329 9.03897C7.12485 9.29982 7.06924 9.5794 7.06924 9.86174C7.06611 11.0492 8.02861 12.0117 9.21924 12.0117ZM17.1036 19.6711C17.1036 18.1149 17.4005 16.6086 19.3286 16.6086C21.2286 16.6086 21.2567 18.3867 21.2567 19.7711V25.5742H24.963V19.0305C24.963 15.818 24.2692 13.3461 20.5161 13.3461C18.713 13.3461 17.5036 14.3367 17.0067 15.2742H16.9567V13.643H13.3974V25.5742H17.1036V19.6711Z" fill="white"/>
</svg>
