<svg width="321" height="41" viewBox="0 0 321 41" fill="none" xmlns="http://www.w3.org/2000/svg">
<path d="M0.736 17.808C1.936 17.784 2.788 17.568 3.292 17.16C3.82 16.752 4.084 16.14 4.084 15.324C4.084 14.748 3.964 13.596 3.724 11.868C3.604 11.124 3.496 10.356 3.4 9.564C3.304 8.748 3.256 8.028 3.256 7.404C3.256 5.196 3.928 3.48 5.272 2.256C6.64 1.032 8.476 0.419999 10.78 0.419999H13.444V6.144H12.148C11.38 6.144 10.828 6.312 10.492 6.648C10.156 6.984 9.988 7.488 9.988 8.16C9.988 8.616 10.084 9.684 10.276 11.364C10.492 13.524 10.6 14.928 10.6 15.576C10.6 16.944 10.276 18.072 9.628 18.96C9.004 19.848 8.044 20.412 6.748 20.652V20.724C8.044 20.964 9.004 21.528 9.628 22.416C10.276 23.304 10.6 24.432 10.6 25.8C10.6 26.448 10.492 27.852 10.276 30.012C10.084 31.692 9.988 32.772 9.988 33.252C9.988 33.9 10.156 34.392 10.492 34.728C10.828 35.064 11.38 35.232 12.148 35.232H13.444V40.956H10.78C8.476 40.956 6.64 40.344 5.272 39.12C3.928 37.896 3.256 36.18 3.256 33.972C3.256 33.348 3.304 32.64 3.4 31.848C3.496 31.032 3.604 30.252 3.724 29.508C3.964 27.78 4.084 26.64 4.084 26.088C4.084 24.456 2.968 23.604 0.736 23.532V17.808ZM42.4308 7.62L33.6828 33H24.6468L15.8628 7.62H23.4228L29.1828 25.944L34.9068 7.62H42.4308ZM74.2573 7.62V33H67.2013V18.996L62.4133 33H56.5093L51.6853 18.888V33H44.6293V7.62H53.1613L59.5333 24.108L65.7613 7.62H74.2573ZM94.4738 19.968C95.9618 20.304 97.1378 21.048 98.0018 22.2C98.8898 23.328 99.3338 24.624 99.3338 26.088C99.3338 28.248 98.5898 29.94 97.1018 31.164C95.6138 32.388 93.5258 33 90.8378 33H78.2738V7.62H90.4418C93.0338 7.62 95.0618 8.196 96.5258 9.348C98.0138 10.5 98.7578 12.12 98.7578 14.208C98.7578 15.696 98.3618 16.944 97.5698 17.952C96.8018 18.936 95.7698 19.608 94.4738 19.968ZM85.3298 17.7H88.8938C90.6698 17.7 91.5578 16.968 91.5578 15.504C91.5578 13.992 90.6698 13.236 88.8938 13.236H85.3298V17.7ZM89.4338 27.312C91.2098 27.312 92.0978 26.568 92.0978 25.08C92.0978 24.312 91.8578 23.724 91.3778 23.316C90.9218 22.908 90.2618 22.704 89.3978 22.704H85.3298V27.312H89.4338ZM112.47 7.62C115.134 7.62 117.462 8.16 119.454 9.24C121.47 10.296 123.018 11.784 124.098 13.704C125.178 15.624 125.718 17.82 125.718 20.292C125.718 22.74 125.166 24.924 124.062 26.844C122.982 28.764 121.434 30.276 119.418 31.38C117.426 32.46 115.11 33 112.47 33H102.426V7.62H112.47ZM111.93 26.772C113.994 26.772 115.614 26.208 116.79 25.08C117.966 23.952 118.554 22.356 118.554 20.292C118.554 18.204 117.966 16.596 116.79 15.468C115.614 14.316 113.994 13.74 111.93 13.74H109.482V26.772H111.93ZM135.955 13.272V17.412H144.055V22.776H135.955V27.348H145.135V33H128.899V7.62H145.135V13.272H135.955ZM173.317 7.62L164.569 33H155.533L146.749 7.62H154.309L160.069 25.944L165.793 7.62H173.317ZM182.572 13.272V17.412H190.672V22.776H182.572V27.348H191.752V33H175.516V7.62H191.752V13.272H182.572ZM202.295 27.6H210.179V33H195.239V7.62H202.295V27.6ZM225.09 33.252C222.714 33.252 220.53 32.7 218.538 31.596C216.546 30.468 214.962 28.92 213.786 26.952C212.634 24.96 212.058 22.716 212.058 20.22C212.058 17.724 212.634 15.492 213.786 13.524C214.962 11.532 216.546 9.984 218.538 8.88C220.53 7.776 222.714 7.224 225.09 7.224C227.49 7.224 229.674 7.776 231.642 8.88C233.634 9.984 235.206 11.532 236.358 13.524C237.51 15.492 238.086 17.724 238.086 20.22C238.086 22.716 237.51 24.96 236.358 26.952C235.206 28.92 233.634 30.468 231.642 31.596C229.65 32.7 227.466 33.252 225.09 33.252ZM225.09 26.7C226.89 26.7 228.306 26.112 229.338 24.936C230.394 23.76 230.922 22.188 230.922 20.22C230.922 18.204 230.394 16.62 229.338 15.468C228.306 14.292 226.89 13.704 225.09 13.704C223.266 13.704 221.838 14.292 220.806 15.468C219.774 16.62 219.258 18.204 219.258 20.22C219.258 22.212 219.774 23.796 220.806 24.972C221.838 26.124 223.266 26.7 225.09 26.7ZM261.31 16.08C261.31 17.616 260.95 19.02 260.23 20.292C259.534 21.54 258.466 22.548 257.026 23.316C255.61 24.06 253.87 24.432 251.806 24.432H248.314V33H241.258V7.62H251.806C253.846 7.62 255.574 7.98 256.99 8.7C258.43 9.42 259.51 10.416 260.23 11.688C260.95 12.96 261.31 14.424 261.31 16.08ZM251.122 18.816C253.114 18.816 254.11 17.904 254.11 16.08C254.11 14.232 253.114 13.308 251.122 13.308H248.314V18.816H251.122ZM271.201 13.272V17.412H279.301V22.776H271.201V27.348H280.381V33H264.145V7.62H280.381V13.272H271.201ZM296.72 33L291.68 23.64H290.924V33H283.868V7.62H294.992C297.032 7.62 298.76 7.98 300.176 8.7C301.592 9.396 302.66 10.368 303.38 11.616C304.1 12.84 304.46 14.22 304.46 15.756C304.46 17.484 303.98 19.008 303.02 20.328C302.084 21.624 300.704 22.548 298.88 23.1L304.604 33H296.72ZM290.924 18.816H294.416C295.376 18.816 296.096 18.588 296.576 18.132C297.056 17.676 297.296 17.016 297.296 16.152C297.296 15.336 297.044 14.7 296.54 14.244C296.06 13.764 295.352 13.524 294.416 13.524H290.924V18.816ZM320.628 23.532C318.396 23.604 317.28 24.456 317.28 26.088C317.28 26.64 317.4 27.78 317.64 29.508C317.76 30.252 317.868 31.032 317.964 31.848C318.06 32.64 318.108 33.348 318.108 33.972C318.108 36.18 317.424 37.896 316.056 39.12C314.712 40.344 312.888 40.956 310.584 40.956H307.92V35.232H309.216C309.984 35.232 310.536 35.064 310.872 34.728C311.208 34.392 311.376 33.9 311.376 33.252C311.376 32.772 311.28 31.692 311.088 30.012C310.872 27.852 310.764 26.448 310.764 25.8C310.764 24.432 311.076 23.304 311.7 22.416C312.348 21.528 313.32 20.964 314.616 20.724V20.652C313.32 20.412 312.348 19.848 311.7 18.96C311.076 18.072 310.764 16.944 310.764 15.576C310.764 14.928 310.872 13.524 311.088 11.364C311.28 9.684 311.376 8.616 311.376 8.16C311.376 7.488 311.208 6.984 310.872 6.648C310.536 6.312 309.984 6.144 309.216 6.144H307.92V0.419999H310.584C312.888 0.419999 314.712 1.032 316.056 2.256C317.424 3.48 318.108 5.196 318.108 7.404C318.108 8.028 318.06 8.748 317.964 9.564C317.868 10.356 317.76 11.124 317.64 11.868C317.4 13.596 317.28 14.748 317.28 15.324C317.28 16.14 317.532 16.752 318.036 17.16C318.564 17.568 319.428 17.784 320.628 17.808V23.532Z" fill="url(#paint0_angular_9_26)"/>
<defs>
<radialGradient id="paint0_angular_9_26" cx="0" cy="0" r="1" gradientUnits="userSpaceOnUse" gradientTransform="translate(115.5 20) rotate(30.6852) scale(52.9079 319.407)">
<stop offset="0.745538" stop-color="#00AFEF"/>
<stop offset="0.996466" stop-color="#C100CC"/>
</radialGradient>
</defs>
</svg>
