<svg width="28" height="28" viewBox="0 0 28 28" fill="none" xmlns="http://www.w3.org/2000/svg">
<path d="M13.719 0.771038C11.968 0.771038 10.2342 1.11592 8.61651 1.78598C6.99883 2.45604 5.52898 3.43817 4.29086 4.67628C1.79038 7.17677 0.38562 10.5682 0.38562 14.1044C0.38562 17.6406 1.79038 21.032 4.29086 23.5325C5.52898 24.7706 6.99883 25.7527 8.61651 26.4228C10.2342 27.0928 11.968 27.4377 13.719 27.4377C17.2552 27.4377 20.6466 26.0329 23.147 23.5325C25.6475 21.032 27.0523 17.6406 27.0523 14.1044C27.0523 12.3534 26.7074 10.6196 26.0373 9.00193C25.3673 7.38425 24.3852 5.9144 23.147 4.67628C21.9089 3.43817 20.4391 2.45604 18.8214 1.78598C17.2037 1.11592 15.4699 0.771038 13.719 0.771038ZM7.14562 22.4777C7.71895 21.2777 11.2123 20.1044 13.719 20.1044C16.2256 20.1044 19.719 21.2777 20.2923 22.4777C18.4248 23.9657 16.1068 24.7745 13.719 24.771C11.239 24.771 8.95895 23.9177 7.14562 22.4777ZM22.199 20.5444C20.2923 18.2244 15.6656 17.4377 13.719 17.4377C11.7723 17.4377 7.14562 18.2244 5.23895 20.5444C3.82053 18.6972 3.05184 16.4333 3.05229 14.1044C3.05229 8.22437 7.83895 3.4377 13.719 3.4377C19.599 3.4377 24.3856 8.22437 24.3856 14.1044C24.3856 16.531 23.559 18.771 22.199 20.5444ZM13.719 6.10437C11.1323 6.10437 9.05229 8.18437 9.05229 10.771C9.05229 13.3577 11.1323 15.4377 13.719 15.4377C16.3056 15.4377 18.3856 13.3577 18.3856 10.771C18.3856 8.18437 16.3056 6.10437 13.719 6.10437ZM13.719 12.771C13.1885 12.771 12.6798 12.5603 12.3047 12.1853C11.9297 11.8102 11.719 11.3015 11.719 10.771C11.719 10.2406 11.9297 9.7319 12.3047 9.35682C12.6798 8.98175 13.1885 8.77104 13.719 8.77104C14.2494 8.77104 14.7581 8.98175 15.1332 9.35682C15.5082 9.7319 15.719 10.2406 15.719 10.771C15.719 11.3015 15.5082 11.8102 15.1332 12.1853C14.7581 12.5603 14.2494 12.771 13.719 12.771Z" fill="#F1F5F9"/>
</svg>
